<?xml version="1.0" encoding="UTF-8" standalone="yes"?>
<svg xmlns="http://www.w3.org/2000/svg" viewBox="0 0 100 100" width="200" height="200" fill="#000000">
  <path d="M 64.994141 5.9863281 A 1.0001 1.0001 0 0 0 64.503906 6.1074219 C 56.920654 7.3127259 53.113349 11.773569 51.433594 15.921875 C 49.826929 19.889679 50.00194 23.342788 50.027344 23.773438 A 1.0001 1.0001 0 0 0 51 25 L 51.017578 25 A 1.0001 1.0001 0 0 0 51.140625 24.990234 A 1.0001 1.0001 0 0 0 51.427734 24.912109 C 59.062448 23.725066 62.880986 19.240422 64.566406 15.078125 C 66.153645 11.158295 65.998828 7.7865645 65.970703 7.2832031 A 1.0001 1.0001 0 0 0 65.382812 6.0703125 A 1.0001 1.0001 0 0 0 65.310547 6.0429688 A 1.0001 1.0001 0 0 0 64.994141 5.9863281 z M 63.947266 8.3105469 C 63.932986 9.5375035 63.805799 11.624264 62.710938 14.328125 C 61.290061 17.837107 58.322384 21.402837 52.052734 22.689453 C 52.067014 21.462496 52.194201 19.375736 53.289062 16.671875 C 54.709939 13.162893 57.677616 9.5971633 63.947266 8.3105469 z M 35.5 25 C 25.429825 25 16 33.597527 16 45.5 C 16 54.651556 18.056418 63.673433 21.232422 69.951172 C 23.971046 75.36473 27.134836 79.341023 30.171875 81.988281 C 33.208914 84.63554 36.09375 86 38.5 86 C 40.972222 86 42.809853 85.171884 44.740234 84.433594 C 46.670616 83.695304 48.7408 83 52 83 C 55.2592 83 57.329384 83.695304 59.259766 84.433594 C 61.190147 85.171884 63.027778 86 65.5 86 C 67.90625 86 70.791086 84.63554 73.828125 81.988281 C 76.865164 79.341023 80.028954 75.36473 82.767578 69.951172 C 83.181105 69.132452 83.557226 68.276236 83.923828 67.388672 A 1.0001 1.0001 0 0 0 83.419922 66.099609 C 77.994675 63.585516 74 57.064518 74 49.3125 C 74 42.050728 77.585748 35.857181 82.498047 33.042969 A 1.0001 1.0001 0 0 0 82.742188 31.503906 C 79.068535 27.439844 73.856286 25 68.5 25 C 64.761905 25 61.88379 26.346282 59.337891 27.603516 C 56.791992 28.86075 54.585145 30 52 30 C 49.414855 30 47.208008 28.86075 44.662109 27.603516 C 42.11621 26.346282 39.238095 25 35.5 25 z M 35.5 27 C 38.761905 27 41.25879 28.153718 43.775391 29.396484 C 46.291992 30.63925 48.835145 32 52 32 C 55.164855 32 57.708008 30.63925 60.224609 29.396484 C 62.74121 28.153718 65.238095 27 68.5 27 C 72.899774 27 77.215675 28.938536 80.464844 32.128906 C 75.436472 35.585716 72 41.927753 72 49.3125 C 72 57.342068 75.968417 64.187634 81.751953 67.345703 C 81.50001 67.929323 81.249824 68.519413 80.982422 69.048828 C 78.346046 74.26027 75.322336 78.033977 72.515625 80.480469 C 69.708914 82.92696 67.09375 84 65.5 84 C 63.472222 84 61.966228 83.328116 59.974609 82.566406 C 57.982991 81.804696 55.5528 81 52 81 C 48.4472 81 46.017009 81.804696 44.025391 82.566406 C 42.033772 83.328116 40.527778 84 38.5 84 C 36.90625 84 34.291086 82.92696 31.484375 80.480469 C 28.677664 78.033977 25.653954 74.26027 23.017578 69.048828 C 20.035582 63.154567 18 54.348444 18 45.5 C 18 34.652473 26.570175 27 35.5 27 z M 34.490234 31.052734 A 0.50005 0.50005 0 0 0 34.455078 31.054688 C 34.102255 31.086378 33.755605 31.137328 33.412109 31.199219 A 0.50005 0.50005 0 1 0 33.587891 32.183594 C 33.910395 32.125484 34.229745 32.079091 34.544922 32.050781 A 0.50005 0.50005 0 0 0 34.490234 31.052734 z M 31.511719 31.722656 A 0.50005 0.50005 0 0 0 31.332031 31.755859 C 30.251657 32.142596 29.199681 32.667617 28.216797 33.339844 A 0.50005 0.50005 0 1 0 28.783203 34.164062 C 29.692319 33.54229 30.664343 33.056529 31.667969 32.697266 A 0.50005 0.50005 0 0 0 31.511719 31.722656 z M 26.412109 34.996094 A 0.50005 0.50005 0 0 0 26.072266 35.152344 C 24.472958 36.797287 23.223045 38.894783 22.552734 41.369141 A 0.50005 0.50005 0 1 0 23.517578 41.630859 C 24.143267 39.321217 25.304371 37.374713 26.789062 35.847656 A 0.50005 0.50005 0 0 0 26.412109 34.996094 z M 22.515625 46.994141 A 0.50005 0.50005 0 0 0 22.042969 47.519531 C 22.312395 54.723392 23.980545 62.093559 26.585938 67.242188 C 28.774532 71.566834 31.107677 74.569101 33.148438 76.576172 A 0.50064881 0.50064881 0 0 0 33.851562 75.863281 C 31.894323 73.938352 29.621921 71.026369 27.478516 66.791016 C 24.969907 61.833645 23.30559 54.554608 23.041016 47.480469 A 0.50005 0.50005 0 0 0 22.515625 46.994141 z"/>
</svg>
